HIERARCHY
ROOT Hips
{
	OFFSET 0.000000 0.000000 0.000000
	CHANNELS 6 Xposition Yposition Zposition Zrotation Yrotation Xrotation 
	JOINT LHipJoint
	{
		OFFSET 0.000000 0.000000 0.000000
		CHANNELS 3 Zrotation Yrotation Xrotation
		JOINT LeftUpLeg
		{
			OFFSET 1.363060 -1.794630 0.839290
			CHANNELS 3 Zrotation Yrotation Xrotation
			JOINT LeftLeg
			{
				OFFSET 2.448110 -6.726130 0.000000
				CHANNELS 3 Zrotation Yrotation Xrotation
				JOINT LeftFoot
				{
					OFFSET 2.562200 -7.039590 0.000000
					CHANNELS 3 Zrotation Yrotation Xrotation
					JOINT LeftToeBase
					{
						OFFSET 0.157640 -0.433110 2.322550
						CHANNELS 3 Zrotation Yrotation Xrotation
						End Site
						{
							OFFSET 0.000000 0.000000 0.000000
						}
					}
				}
			}
		}
	}
	JOINT RHipJoint
	{
		OFFSET 0.000000 0.000000 0.000000
		CHANNELS 3 Zrotation Yrotation Xrotation
		JOINT RightUpLeg
		{
			OFFSET -1.305520 -1.794630 0.839290
			CHANNELS 3 Zrotation Yrotation Xrotation
			JOINT RightLeg
			{
				OFFSET -2.542530 -6.985550 0.000000
				CHANNELS 3 Zrotation Yrotation Xrotation
				JOINT RightFoot
				{
					OFFSET -2.568260 -7.056230 0.000000
					CHANNELS 3 Zrotation Yrotation Xrotation
					JOINT RightToeBase
					{
						OFFSET -0.164730 -0.452590 2.363150
						CHANNELS 3 Zrotation Yrotation Xrotation
						End Site
						{
							OFFSET 0.000000 0.000000 0.000000
						}
					}
				}
			}
		}
	}
	JOINT LowerBack
	{
		OFFSET 0.000000 0.000000 0.000000
		CHANNELS 3 Zrotation Yrotation Xrotation
		JOINT Spine
		{
			OFFSET 0.028270 2.035590 -0.193380
			CHANNELS 3 Zrotation Yrotation Xrotation
			JOINT Spine1
			{
				OFFSET 0.056720 2.048850 -0.042750
				CHANNELS 3 Zrotation Yrotation Xrotation
				JOINT Neck
				{
					OFFSET 0.000000 0.000000 0.000000
					CHANNELS 3 Zrotation Yrotation Xrotation
					JOINT Neck1
					{
						OFFSET -0.054170 1.746240 0.172020
						CHANNELS 3 Zrotation Yrotation Xrotation
						JOINT Head
						{
							OFFSET 0.104070 1.761360 -0.123970
							CHANNELS 3 Zrotation Yrotation Xrotation
							End Site
							{
								OFFSET 0.000000 0.000000 0.000000
							}
						}
					}
				}
				JOINT LeftShoulder
				{
					OFFSET 0.000000 0.000000 0.000000
					CHANNELS 3 Zrotation Yrotation Xrotation
					JOINT LeftArm
					{
						OFFSET 3.362410 1.200890 -0.311210
						CHANNELS 3 Zrotation Yrotation Xrotation
						JOINT LeftForeArm
						{
							OFFSET 4.983000 -0.000000 -0.000000
							CHANNELS 3 Zrotation Yrotation Xrotation
							JOINT LeftHand
							{
								OFFSET 3.483560 -0.000000 -0.000000
								CHANNELS 3 Zrotation Yrotation Xrotation
								JOINT LeftFingerBase
								{
									OFFSET 0.000000 0.000000 0.000000
									CHANNELS 3 Zrotation Yrotation Xrotation
									JOINT LeftHandIndex1
									{
										OFFSET 0.715260 -0.000000 -0.000000
										CHANNELS 3 Zrotation Yrotation Xrotation
										End Site
										{
											OFFSET 0.000000 0.000000 0.000000
										}
									}
								}
								JOINT LThumb
								{
									OFFSET 0.000000 0.000000 0.000000
									CHANNELS 3 Zrotation Yrotation Xrotation
									End Site
									{
										OFFSET 0.000000 0.000000 0.000000
									}
								}
							}
						}
					}
				}
				JOINT RightShoulder
				{
					OFFSET 0.000000 0.000000 0.000000
					CHANNELS 3 Zrotation Yrotation Xrotation
					JOINT RightArm
					{
						OFFSET -3.136600 1.374050 -0.404650
						CHANNELS 3 Zrotation Yrotation Xrotation
						JOINT RightForeArm
						{
							OFFSET -5.241900 -0.000000 -0.000000
							CHANNELS 3 Zrotation Yrotation Xrotation
							JOINT RightHand
							{
								OFFSET -3.444170 -0.000000 -0.000000
								CHANNELS 3 Zrotation Yrotation Xrotation
								JOINT RightFingerBase
								{
									OFFSET 0.000000 0.000000 0.000000
									CHANNELS 3 Zrotation Yrotation Xrotation
									JOINT RightHandIndex1
									{
										OFFSET -0.622530 -0.000000 -0.000000
										CHANNELS 3 Zrotation Yrotation Xrotation
										End Site
										{
											OFFSET 0.000000 0.000000 0.000000
										}
									}
								}
								JOINT RThumb
								{
									OFFSET 0.000000 0.000000 0.000000
									CHANNELS 3 Zrotation Yrotation Xrotation
									End Site
									{
										OFFSET 0.000000 0.000000 0.000000
									}
								}
							}
						}
					}
				}
			}
		}
	}
}
MOTION
Frames: 5
Frame Time: 0.008333
0.878852 17.704918 -21.652158 6.813515 3.230210 2.115514 0.657639 3.104379 2.524796 -27.903482 -1.401556 17.392840 -1.410553 -1.084425 1.431215 0.090674 0.305590 4.222476 0.578869 -4.871565 -13.542651 -2.571504 -2.187613 0.403313 8.636934 17.084712 -34.129585 -0.996958 -8.621862 22.707266 3.310034 -15.963237 -6.775117 -0.004572 0.392429 -1.078452 -6.240989 -2.721412 4.836717 0.765261 -4.094398 -1.094313 6.229105 -2.032025 -0.990749 -8.415019 -0.415977 -9.981366 2.622358 0.614846 14.114619 2.902989 -0.376638 8.698916 -7.374703 2.581428 -2.274190 -76.882665 -7.621856 26.881189 14.152219 -25.801818 -4.285207 -1.272360 -3.114729 12.420923 15.913282 23.365422 7.601905 -7.125000 0.000000 0.000000 -14.942316 57.061647 -4.484514 6.230229 -2.541752 -1.989565 82.133582 -4.286426 8.772976 -10.122944 15.607991 -1.864463 0.713437 -1.282894 15.863333 -12.212094 14.386966 -3.574248 7.125000 0.000000 0.000000 9.681168 -14.346688 7.084515
0.870468 17.703060 -21.558757 6.737941 3.429834 2.124773 0.669248 3.122659 2.541142 -27.722657 -1.536295 17.729028 -1.409946 -1.089096 1.431884 0.131609 0.117135 4.420027 0.597408 -4.947495 -13.758953 -2.579757 -2.194270 0.404643 8.691142 17.070693 -34.039994 -0.987709 -8.608785 22.692581 3.199875 -15.543613 -6.906750 -0.009717 0.598087 -1.643756 -6.172658 -2.826208 4.810672 0.800525 -4.229142 -1.108044 6.285125 -2.100237 -0.995046 -8.440232 -0.383404 -9.962053 2.602421 0.666024 14.198168 2.902767 -0.361115 8.726148 -7.359716 2.589685 -2.280471 -76.846268 -7.597195 27.004692 14.227356 -25.919576 -4.335230 -1.267685 -3.101355 12.285532 15.953657 23.195375 7.575516 -7.125000 0.000000 0.000000 -14.789348 56.889741 -4.375543 6.225220 -2.556447 -1.997710 82.094599 -4.491977 8.576247 -10.122081 15.640841 -1.870126 0.684036 -1.349334 16.174498 -12.123980 14.991454 -3.698343 7.125000 0.000000 0.000000 9.743703 -13.679864 7.271545
0.861840 17.700356 -21.465200 6.666016 3.619075 2.124682 0.681778 3.140925 2.556921 -27.546517 -1.658093 18.067572 -1.409048 -1.093981 1.432324 0.171435 -0.066915 4.639070 0.616644 -5.025437 -13.981173 -2.587662 -2.201225 0.405193 8.778973 16.995526 -33.962459 -0.984584 -8.607833 22.708801 3.092693 -15.131735 -6.874157 -0.018495 0.841341 -2.312766 -6.105262 -2.919433 4.790168 0.831436 -4.348354 -1.117758 6.331279 -2.160926 -0.996021 -8.458949 -0.359936 -9.934806 2.581960 0.702521 14.263263 2.899913 -0.350912 8.744437 -7.344267 2.598268 -2.287100 -76.812004 -7.564225 27.133311 14.320448 -26.061846 -4.394066 -1.265805 -3.092045 12.176365 16.018727 23.084655 7.578032 -7.125000 0.000000 0.000000 -14.646410 56.786033 -4.294149 6.220665 -2.570837 -2.003246 82.065807 -4.677226 8.328977 -10.110312 15.654215 -1.870606 0.655834 -1.419172 16.503159 -12.060363 15.611817 -3.833905 7.125000 0.000000 0.000000 9.789508 -12.992631 7.449600
0.852459 17.695054 -21.371163 6.605319 3.776372 2.095826 0.697140 3.159148 2.570958 -27.384788 -1.740072 18.413364 -1.407253 -1.099524 1.432058 0.207852 -0.237407 4.924243 0.638021 -5.109572 -14.221603 -2.594498 -2.209093 0.403343 8.970264 16.732208 -33.922019 -1.000299 -8.644186 22.820112 2.994671 -14.743695 -6.336251 -0.038454 1.200277 -3.300872 -6.040745 -2.977054 4.786716 0.848949 -4.419776 -1.115107 6.347078 -2.198466 -0.986774 -8.457679 -0.364479 -9.883143 2.559888 0.693843 14.271577 2.888958 -0.357077 8.735212 -7.327394 2.607858 -2.294799 -76.784301 -7.505691 27.277668 14.468787 -26.279539 -4.480018 -1.272525 -3.095242 12.147886 16.159781 23.156480 7.669485 -7.125000 0.000000 0.000000 -14.534333 56.892166 -4.297608 6.217506 -2.584292 -2.000754 82.068371 -4.800009 7.926198 -10.064988 15.607659 -1.855138 0.631318 -1.499469 16.885650 -12.072123 16.281028 -4.004746 7.125000 0.000000 0.000000 9.783831 -12.242603 7.600041
0.843078 17.689752 -21.277127 6.544622 3.933669 2.066970 0.712502 3.177371 2.584995 -27.223060 -1.822051 18.759157 -1.405459 -1.105067 1.431792 0.244269 -0.407899 5.209416 0.659398 -5.193706 -14.462032 -2.601335 -2.216961 0.401493 9.161554 16.468891 -33.881579 -1.016015 -8.680540 22.931423 2.896649 -14.355655 -5.798346 -0.058412 1.559214 -4.288978 -5.976228 -3.034675 4.783265 0.866463 -4.491198 -1.112456 6.362877 -2.236007 -0.977526 -8.456408 -0.369023 -9.831479 2.537816 0.685166 14.279891 2.878003 -0.363242 8.725987 -7.310522 2.617449 -2.302497 -76.756598 -7.447156 27.422026 14.617127 -26.497231 -4.565971 -1.279245 -3.098439 12.119408 16.300835 23.228305 7.760937 -7.125000 0.000000 0.000000 -14.422257 56.998299 -4.301067 6.214347 -2.597747 -1.998262 82.070936 -4.922792 7.523419 -10.019665 15.561103 -1.839671 0.606802 -1.579765 17.268141 -12.083883 16.950240 -4.175588 7.125000 0.000000 0.000000 9.778154 -11.492576 7.750481
